<mxfile host="app.diagrams.net" modified="2023-10-24T00:30:47.921Z" agent="Mozilla/5.0 (Macintosh; Intel Mac OS X 10_15_7) AppleWebKit/537.36 (KHTML, like Gecko) Chrome/118.0.0.0 Safari/537.36" etag="6BhDejIywD-Q0UzrUsmn" version="22.0.6" type="google">
  <diagram name="PÃ¡gina-1" id="msHE8i3N-f8UlQ8xweG0">
    <mxGraphModel grid="1" page="1" gridSize="10" guides="1" tooltips="1" connect="1" arrows="1" fold="1" pageScale="1" pageWidth="827" pageHeight="1169" math="0" shadow="0">
      <root>
        <mxCell id="0" />
        <mxCell id="1" parent="0" />
        <mxCell id="DqX2a301VDLTfdtzmk4_-1" value="" style="shape=umlLifeline;perimeter=lifelinePerimeter;whiteSpace=wrap;html=1;container=1;dropTarget=0;collapsible=0;recursiveResize=0;outlineConnect=0;portConstraint=eastwest;newEdgeStyle={&quot;curved&quot;:0,&quot;rounded&quot;:0};participant=umlActor;" vertex="1" parent="1">
          <mxGeometry y="610" width="20" height="430" as="geometry" />
        </mxCell>
        <mxCell id="DqX2a301VDLTfdtzmk4_-2" value="" style="html=1;points=[[0,0,0,0,5],[0,1,0,0,-5],[1,0,0,0,5],[1,1,0,0,-5]];perimeter=orthogonalPerimeter;outlineConnect=0;targetShapes=umlLifeline;portConstraint=eastwest;newEdgeStyle={&quot;curved&quot;:0,&quot;rounded&quot;:0};" vertex="1" parent="DqX2a301VDLTfdtzmk4_-1">
          <mxGeometry x="5" y="70" width="10" height="340" as="geometry" />
        </mxCell>
        <mxCell id="DqX2a301VDLTfdtzmk4_-3" value="VistaBuscarParticipantes" style="shape=umlLifeline;perimeter=lifelinePerimeter;whiteSpace=wrap;html=1;container=1;dropTarget=0;collapsible=0;recursiveResize=0;outlineConnect=0;portConstraint=eastwest;newEdgeStyle={&quot;curved&quot;:0,&quot;rounded&quot;:0};" vertex="1" parent="1">
          <mxGeometry x="80" y="610" width="160" height="430" as="geometry" />
        </mxCell>
        <mxCell id="DqX2a301VDLTfdtzmk4_-4" style="edgeStyle=orthogonalEdgeStyle;rounded=0;orthogonalLoop=1;jettySize=auto;html=1;curved=0;exitX=1;exitY=1;exitDx=0;exitDy=-5;exitPerimeter=0;" edge="1" parent="DqX2a301VDLTfdtzmk4_-3">
          <mxGeometry relative="1" as="geometry">
            <mxPoint x="85" y="340" as="targetPoint" />
            <mxPoint x="85" y="395" as="sourcePoint" />
            <Array as="points">
              <mxPoint x="105" y="395" />
              <mxPoint x="105" y="340" />
            </Array>
          </mxGeometry>
        </mxCell>
        <mxCell id="DqX2a301VDLTfdtzmk4_-5" value="mensajeRegistro" style="edgeLabel;html=1;align=center;verticalAlign=middle;resizable=0;points=[];" connectable="0" vertex="1" parent="DqX2a301VDLTfdtzmk4_-4">
          <mxGeometry x="-0.0526" y="2" relative="1" as="geometry">
            <mxPoint x="27" as="offset" />
          </mxGeometry>
        </mxCell>
        <mxCell id="DqX2a301VDLTfdtzmk4_-6" style="edgeStyle=orthogonalEdgeStyle;rounded=0;orthogonalLoop=1;jettySize=auto;html=1;curved=0;" edge="1" parent="DqX2a301VDLTfdtzmk4_-3" target="DqX2a301VDLTfdtzmk4_-8">
          <mxGeometry relative="1" as="geometry">
            <mxPoint x="100" y="165" as="targetPoint" />
            <mxPoint x="85" y="60" as="sourcePoint" />
            <Array as="points">
              <mxPoint x="85" y="75" />
              <mxPoint x="105" y="75" />
              <mxPoint x="105" y="100" />
            </Array>
          </mxGeometry>
        </mxCell>
        <mxCell id="DqX2a301VDLTfdtzmk4_-7" value="ObtenerTexto&lt;br&gt;BarraDeBusqueda()" style="edgeLabel;html=1;align=center;verticalAlign=middle;resizable=0;points=[];" connectable="0" vertex="1" parent="DqX2a301VDLTfdtzmk4_-6">
          <mxGeometry x="0.6122" y="-3" relative="1" as="geometry">
            <mxPoint x="49" y="-17" as="offset" />
          </mxGeometry>
        </mxCell>
        <mxCell id="DqX2a301VDLTfdtzmk4_-8" value="" style="html=1;points=[[0,0,0,0,5],[0,1,0,0,-5],[1,0,0,0,5],[1,1,0,0,-5]];perimeter=orthogonalPerimeter;outlineConnect=0;targetShapes=umlLifeline;portConstraint=eastwest;newEdgeStyle={&quot;curved&quot;:0,&quot;rounded&quot;:0};" vertex="1" parent="DqX2a301VDLTfdtzmk4_-3">
          <mxGeometry x="75" y="70" width="10" height="340" as="geometry" />
        </mxCell>
        <mxCell id="DqX2a301VDLTfdtzmk4_-9" value="ControladorPaticipante" style="shape=umlLifeline;whiteSpace=wrap;html=1;container=1;dropTarget=0;collapsible=0;recursiveResize=0;outlineConnect=0;portConstraint=eastwest;newEdgeStyle={&quot;curved&quot;:0,&quot;rounded&quot;:0};points=[[0,0,0,0,5],[0,1,0,0,-5],[1,0,0,0,5],[1,1,0,0,-5]];perimeter=rectanglePerimeter;targetShapes=umlLifeline;participant=label;" vertex="1" parent="1">
          <mxGeometry x="260" y="610" width="160" height="430" as="geometry" />
        </mxCell>
        <mxCell id="DqX2a301VDLTfdtzmk4_-10" value="" style="html=1;points=[[0,0,0,0,5],[0,1,0,0,-5],[1,0,0,0,5],[1,1,0,0,-5]];perimeter=orthogonalPerimeter;outlineConnect=0;targetShapes=umlLifeline;portConstraint=eastwest;newEdgeStyle={&quot;curved&quot;:0,&quot;rounded&quot;:0};" vertex="1" parent="DqX2a301VDLTfdtzmk4_-9">
          <mxGeometry x="75" y="70" width="10" height="340" as="geometry" />
        </mxCell>
        <mxCell id="DqX2a301VDLTfdtzmk4_-11" value="BDDBuscarParticipante" style="shape=umlLifeline;perimeter=lifelinePerimeter;whiteSpace=wrap;html=1;container=1;dropTarget=0;collapsible=0;recursiveResize=0;outlineConnect=0;portConstraint=eastwest;newEdgeStyle={&quot;curved&quot;:0,&quot;rounded&quot;:0};" vertex="1" parent="1">
          <mxGeometry x="435" y="610" width="160" height="430" as="geometry" />
        </mxCell>
        <mxCell id="DqX2a301VDLTfdtzmk4_-12" value="" style="html=1;points=[[0,0,0,0,5],[0,1,0,0,-5],[1,0,0,0,5],[1,1,0,0,-5]];perimeter=orthogonalPerimeter;outlineConnect=0;targetShapes=umlLifeline;portConstraint=eastwest;newEdgeStyle={&quot;curved&quot;:0,&quot;rounded&quot;:0};" vertex="1" parent="DqX2a301VDLTfdtzmk4_-11">
          <mxGeometry x="75" y="100" width="10" height="310" as="geometry" />
        </mxCell>
        <mxCell id="DqX2a301VDLTfdtzmk4_-13" value="ConexionBDD" style="shape=umlLifeline;perimeter=lifelinePerimeter;whiteSpace=wrap;html=1;container=1;dropTarget=0;collapsible=0;recursiveResize=0;outlineConnect=0;portConstraint=eastwest;newEdgeStyle={&quot;curved&quot;:0,&quot;rounded&quot;:0};" vertex="1" parent="1">
          <mxGeometry x="610" y="610" width="160" height="430" as="geometry" />
        </mxCell>
        <mxCell id="DqX2a301VDLTfdtzmk4_-14" value="" style="html=1;points=[[0,0,0,0,5],[0,1,0,0,-5],[1,0,0,0,5],[1,1,0,0,-5]];perimeter=orthogonalPerimeter;outlineConnect=0;targetShapes=umlLifeline;portConstraint=eastwest;newEdgeStyle={&quot;curved&quot;:0,&quot;rounded&quot;:0};" vertex="1" parent="DqX2a301VDLTfdtzmk4_-13">
          <mxGeometry x="75" y="100" width="10" height="310" as="geometry" />
        </mxCell>
        <mxCell id="DqX2a301VDLTfdtzmk4_-15" style="edgeStyle=orthogonalEdgeStyle;rounded=0;orthogonalLoop=1;jettySize=auto;html=1;curved=0;exitX=1;exitY=0;exitDx=0;exitDy=5;exitPerimeter=0;" edge="1" parent="1">
          <mxGeometry relative="1" as="geometry">
            <mxPoint x="170" y="720" as="sourcePoint" />
            <mxPoint x="330" y="720" as="targetPoint" />
          </mxGeometry>
        </mxCell>
        <mxCell id="DqX2a301VDLTfdtzmk4_-16" value="mostrarParticipantes()" style="edgeLabel;html=1;align=center;verticalAlign=middle;resizable=0;points=[];" connectable="0" vertex="1" parent="DqX2a301VDLTfdtzmk4_-15">
          <mxGeometry x="0.1294" y="3" relative="1" as="geometry">
            <mxPoint x="-20" y="3" as="offset" />
          </mxGeometry>
        </mxCell>
        <mxCell id="DqX2a301VDLTfdtzmk4_-17" style="edgeStyle=orthogonalEdgeStyle;rounded=0;orthogonalLoop=1;jettySize=auto;html=1;curved=0;exitX=1;exitY=0;exitDx=0;exitDy=5;exitPerimeter=0;entryX=0;entryY=0;entryDx=0;entryDy=5;entryPerimeter=0;" edge="1" parent="1" source="DqX2a301VDLTfdtzmk4_-10" target="DqX2a301VDLTfdtzmk4_-12">
          <mxGeometry relative="1" as="geometry">
            <Array as="points">
              <mxPoint x="345" y="720" />
              <mxPoint x="490" y="720" />
              <mxPoint x="490" y="715" />
            </Array>
          </mxGeometry>
        </mxCell>
        <mxCell id="DqX2a301VDLTfdtzmk4_-18" value="obtenerParticipante(&lt;br&gt;participante)" style="edgeLabel;html=1;align=center;verticalAlign=middle;resizable=0;points=[];" connectable="0" vertex="1" parent="DqX2a301VDLTfdtzmk4_-17">
          <mxGeometry x="-0.0205" y="2" relative="1" as="geometry">
            <mxPoint x="13" as="offset" />
          </mxGeometry>
        </mxCell>
        <mxCell id="DqX2a301VDLTfdtzmk4_-19" style="edgeStyle=orthogonalEdgeStyle;rounded=0;orthogonalLoop=1;jettySize=auto;html=1;curved=0;entryX=0;entryY=0;entryDx=0;entryDy=5;entryPerimeter=0;" edge="1" parent="1">
          <mxGeometry relative="1" as="geometry">
            <mxPoint x="514.5909090909095" y="765" as="sourcePoint" />
            <mxPoint x="685" y="760" as="targetPoint" />
            <Array as="points">
              <mxPoint x="685" y="765" />
            </Array>
          </mxGeometry>
        </mxCell>
        <mxCell id="DqX2a301VDLTfdtzmk4_-20" value="obtenerIdPorCorreo" style="edgeLabel;html=1;align=center;verticalAlign=middle;resizable=0;points=[];" connectable="0" vertex="1" parent="DqX2a301VDLTfdtzmk4_-19">
          <mxGeometry x="-0.0098" y="2" relative="1" as="geometry">
            <mxPoint y="1" as="offset" />
          </mxGeometry>
        </mxCell>
        <mxCell id="DqX2a301VDLTfdtzmk4_-21" value="conexionBDD" style="endArrow=open;endSize=12;dashed=1;html=1;rounded=0;" edge="1" parent="1">
          <mxGeometry x="-0.0031" width="160" relative="1" as="geometry">
            <mxPoint x="680.5" y="740" as="sourcePoint" />
            <mxPoint x="520" y="740" as="targetPoint" />
            <mxPoint as="offset" />
          </mxGeometry>
        </mxCell>
        <mxCell id="DqX2a301VDLTfdtzmk4_-22" value="Participante" style="html=1;verticalAlign=bottom;endArrow=open;dashed=1;endSize=8;curved=0;rounded=0;" edge="1" parent="1">
          <mxGeometry x="-0.0678" y="10" relative="1" as="geometry">
            <mxPoint x="680" y="920" as="sourcePoint" />
            <mxPoint x="520" y="920" as="targetPoint" />
            <mxPoint as="offset" />
          </mxGeometry>
        </mxCell>
        <mxCell id="DqX2a301VDLTfdtzmk4_-23" style="edgeStyle=orthogonalEdgeStyle;rounded=0;orthogonalLoop=1;jettySize=auto;html=1;curved=0;" edge="1" parent="1">
          <mxGeometry relative="1" as="geometry">
            <mxPoint x="520" y="870" as="sourcePoint" />
            <mxPoint x="685" y="885" as="targetPoint" />
            <Array as="points">
              <mxPoint x="520" y="871" />
              <mxPoint x="603" y="871" />
              <mxPoint x="603" y="905" />
              <mxPoint x="686" y="905" />
            </Array>
          </mxGeometry>
        </mxCell>
        <mxCell id="DqX2a301VDLTfdtzmk4_-24" value="obtenerParticipante(id)" style="edgeLabel;html=1;align=center;verticalAlign=middle;resizable=0;points=[];" connectable="0" vertex="1" parent="DqX2a301VDLTfdtzmk4_-23">
          <mxGeometry x="-0.0951" y="-3" relative="1" as="geometry">
            <mxPoint as="offset" />
          </mxGeometry>
        </mxCell>
        <mxCell id="DqX2a301VDLTfdtzmk4_-27" style="edgeStyle=orthogonalEdgeStyle;rounded=0;orthogonalLoop=1;jettySize=auto;html=1;curved=0;exitX=1;exitY=0;exitDx=0;exitDy=5;exitPerimeter=0;entryX=0;entryY=0;entryDx=0;entryDy=5;entryPerimeter=0;" edge="1" parent="1" source="DqX2a301VDLTfdtzmk4_-2" target="DqX2a301VDLTfdtzmk4_-8">
          <mxGeometry relative="1" as="geometry" />
        </mxCell>
        <mxCell id="DqX2a301VDLTfdtzmk4_-28" style="edgeStyle=orthogonalEdgeStyle;rounded=0;orthogonalLoop=1;jettySize=auto;html=1;curved=0;exitX=1;exitY=0;exitDx=0;exitDy=5;exitPerimeter=0;entryX=0;entryY=0;entryDx=0;entryDy=5;entryPerimeter=0;" edge="1" parent="1" source="DqX2a301VDLTfdtzmk4_-12" target="DqX2a301VDLTfdtzmk4_-14">
          <mxGeometry relative="1" as="geometry" />
        </mxCell>
        <mxCell id="DqX2a301VDLTfdtzmk4_-29" value="conectarBDD()" style="edgeLabel;html=1;align=center;verticalAlign=middle;resizable=0;points=[];" connectable="0" vertex="1" parent="DqX2a301VDLTfdtzmk4_-28">
          <mxGeometry x="0.1472" y="2" relative="1" as="geometry">
            <mxPoint x="-20" as="offset" />
          </mxGeometry>
        </mxCell>
        <mxCell id="DqX2a301VDLTfdtzmk4_-30" value="Id" style="endArrow=open;endSize=12;dashed=1;html=1;rounded=0;" edge="1" parent="1">
          <mxGeometry x="-0.0031" width="160" relative="1" as="geometry">
            <mxPoint x="680.5" y="790" as="sourcePoint" />
            <mxPoint x="520" y="790" as="targetPoint" />
            <mxPoint as="offset" />
          </mxGeometry>
        </mxCell>
        <mxCell id="DqX2a301VDLTfdtzmk4_-35" value="&lt;span style=&quot;font-size: 18px;&quot;&gt;Flujo Alternativo&lt;/span&gt;" style="text;html=1;strokeColor=none;fillColor=none;align=center;verticalAlign=middle;whiteSpace=wrap;rounded=0;" vertex="1" parent="1">
          <mxGeometry x="-40" y="555" width="205" height="30" as="geometry" />
        </mxCell>
        <mxCell id="DqX2a301VDLTfdtzmk4_-63" value="Participante" style="html=1;verticalAlign=bottom;endArrow=open;dashed=1;endSize=8;curved=0;rounded=0;" edge="1" parent="1">
          <mxGeometry x="-0.0678" y="10" relative="1" as="geometry">
            <mxPoint x="504" y="930" as="sourcePoint" />
            <mxPoint x="344" y="930" as="targetPoint" />
            <mxPoint as="offset" />
          </mxGeometry>
        </mxCell>
        <mxCell id="DqX2a301VDLTfdtzmk4_-64" value="Participante" style="html=1;verticalAlign=bottom;endArrow=open;dashed=1;endSize=8;curved=0;rounded=0;" edge="1" parent="1">
          <mxGeometry x="-0.0678" y="10" relative="1" as="geometry">
            <mxPoint x="325" y="940" as="sourcePoint" />
            <mxPoint x="165" y="940" as="targetPoint" />
            <mxPoint as="offset" />
          </mxGeometry>
        </mxCell>
        <mxCell id="DqX2a301VDLTfdtzmk4_-67" value="" style="shape=umlLifeline;perimeter=lifelinePerimeter;whiteSpace=wrap;html=1;container=1;dropTarget=0;collapsible=0;recursiveResize=0;outlineConnect=0;portConstraint=eastwest;newEdgeStyle={&quot;curved&quot;:0,&quot;rounded&quot;:0};participant=umlActor;" vertex="1" parent="1">
          <mxGeometry x="-2.5" y="210" width="20" height="320" as="geometry" />
        </mxCell>
        <mxCell id="DqX2a301VDLTfdtzmk4_-68" value="" style="html=1;points=[[0,0,0,0,5],[0,1,0,0,-5],[1,0,0,0,5],[1,1,0,0,-5]];perimeter=orthogonalPerimeter;outlineConnect=0;targetShapes=umlLifeline;portConstraint=eastwest;newEdgeStyle={&quot;curved&quot;:0,&quot;rounded&quot;:0};" vertex="1" parent="DqX2a301VDLTfdtzmk4_-67">
          <mxGeometry x="5" y="70" width="10" height="230" as="geometry" />
        </mxCell>
        <mxCell id="DqX2a301VDLTfdtzmk4_-69" value="VistaBuscarParticipantes" style="shape=umlLifeline;perimeter=lifelinePerimeter;whiteSpace=wrap;html=1;container=1;dropTarget=0;collapsible=0;recursiveResize=0;outlineConnect=0;portConstraint=eastwest;newEdgeStyle={&quot;curved&quot;:0,&quot;rounded&quot;:0};" vertex="1" parent="1">
          <mxGeometry x="77.5" y="210" width="160" height="320" as="geometry" />
        </mxCell>
        <mxCell id="DqX2a301VDLTfdtzmk4_-70" style="edgeStyle=orthogonalEdgeStyle;rounded=0;orthogonalLoop=1;jettySize=auto;html=1;curved=0;" edge="1" parent="DqX2a301VDLTfdtzmk4_-69" target="DqX2a301VDLTfdtzmk4_-72">
          <mxGeometry relative="1" as="geometry">
            <mxPoint x="100" y="165" as="targetPoint" />
            <mxPoint x="85" y="60" as="sourcePoint" />
            <Array as="points">
              <mxPoint x="85" y="75" />
              <mxPoint x="105" y="75" />
              <mxPoint x="105" y="100" />
            </Array>
          </mxGeometry>
        </mxCell>
        <mxCell id="DqX2a301VDLTfdtzmk4_-71" value="ObtenerTexto&lt;br&gt;BarraDeBusqueda()" style="edgeLabel;html=1;align=center;verticalAlign=middle;resizable=0;points=[];" connectable="0" vertex="1" parent="DqX2a301VDLTfdtzmk4_-70">
          <mxGeometry x="0.6122" y="-3" relative="1" as="geometry">
            <mxPoint x="49" y="-17" as="offset" />
          </mxGeometry>
        </mxCell>
        <mxCell id="DqX2a301VDLTfdtzmk4_-72" value="" style="html=1;points=[[0,0,0,0,5],[0,1,0,0,-5],[1,0,0,0,5],[1,1,0,0,-5]];perimeter=orthogonalPerimeter;outlineConnect=0;targetShapes=umlLifeline;portConstraint=eastwest;newEdgeStyle={&quot;curved&quot;:0,&quot;rounded&quot;:0};" vertex="1" parent="DqX2a301VDLTfdtzmk4_-69">
          <mxGeometry x="70" y="70" width="15" height="230" as="geometry" />
        </mxCell>
        <mxCell id="DqX2a301VDLTfdtzmk4_-73" value="ControladorPaticipante" style="shape=umlLifeline;whiteSpace=wrap;html=1;container=1;dropTarget=0;collapsible=0;recursiveResize=0;outlineConnect=0;portConstraint=eastwest;newEdgeStyle={&quot;curved&quot;:0,&quot;rounded&quot;:0};points=[[0,0,0,0,5],[0,1,0,0,-5],[1,0,0,0,5],[1,1,0,0,-5]];perimeter=rectanglePerimeter;targetShapes=umlLifeline;participant=label;" vertex="1" parent="1">
          <mxGeometry x="257.5" y="210" width="160" height="320" as="geometry" />
        </mxCell>
        <mxCell id="DqX2a301VDLTfdtzmk4_-74" value="" style="html=1;points=[[0,0,0,0,5],[0,1,0,0,-5],[1,0,0,0,5],[1,1,0,0,-5]];perimeter=orthogonalPerimeter;outlineConnect=0;targetShapes=umlLifeline;portConstraint=eastwest;newEdgeStyle={&quot;curved&quot;:0,&quot;rounded&quot;:0};" vertex="1" parent="DqX2a301VDLTfdtzmk4_-73">
          <mxGeometry x="75" y="70" width="10" height="220" as="geometry" />
        </mxCell>
        <mxCell id="DqX2a301VDLTfdtzmk4_-75" value="BDDBuscarParticipante" style="shape=umlLifeline;perimeter=lifelinePerimeter;whiteSpace=wrap;html=1;container=1;dropTarget=0;collapsible=0;recursiveResize=0;outlineConnect=0;portConstraint=eastwest;newEdgeStyle={&quot;curved&quot;:0,&quot;rounded&quot;:0};" vertex="1" parent="1">
          <mxGeometry x="432.5" y="210" width="160" height="320" as="geometry" />
        </mxCell>
        <mxCell id="DqX2a301VDLTfdtzmk4_-76" value="" style="html=1;points=[[0,0,0,0,5],[0,1,0,0,-5],[1,0,0,0,5],[1,1,0,0,-5]];perimeter=orthogonalPerimeter;outlineConnect=0;targetShapes=umlLifeline;portConstraint=eastwest;newEdgeStyle={&quot;curved&quot;:0,&quot;rounded&quot;:0};" vertex="1" parent="DqX2a301VDLTfdtzmk4_-75">
          <mxGeometry x="75" y="100" width="10" height="180" as="geometry" />
        </mxCell>
        <mxCell id="DqX2a301VDLTfdtzmk4_-77" value="ConexionBDD" style="shape=umlLifeline;perimeter=lifelinePerimeter;whiteSpace=wrap;html=1;container=1;dropTarget=0;collapsible=0;recursiveResize=0;outlineConnect=0;portConstraint=eastwest;newEdgeStyle={&quot;curved&quot;:0,&quot;rounded&quot;:0};" vertex="1" parent="1">
          <mxGeometry x="607.5" y="210" width="160" height="320" as="geometry" />
        </mxCell>
        <mxCell id="DqX2a301VDLTfdtzmk4_-78" value="" style="html=1;points=[[0,0,0,0,5],[0,1,0,0,-5],[1,0,0,0,5],[1,1,0,0,-5]];perimeter=orthogonalPerimeter;outlineConnect=0;targetShapes=umlLifeline;portConstraint=eastwest;newEdgeStyle={&quot;curved&quot;:0,&quot;rounded&quot;:0};" vertex="1" parent="DqX2a301VDLTfdtzmk4_-77">
          <mxGeometry x="75" y="100" width="10" height="170" as="geometry" />
        </mxCell>
        <mxCell id="DqX2a301VDLTfdtzmk4_-79" style="edgeStyle=orthogonalEdgeStyle;rounded=0;orthogonalLoop=1;jettySize=auto;html=1;curved=0;exitX=1;exitY=0;exitDx=0;exitDy=5;exitPerimeter=0;" edge="1" parent="1">
          <mxGeometry relative="1" as="geometry">
            <mxPoint x="167.5" y="320" as="sourcePoint" />
            <mxPoint x="327.5" y="320" as="targetPoint" />
          </mxGeometry>
        </mxCell>
        <mxCell id="DqX2a301VDLTfdtzmk4_-80" value="mostrarParticipantes()" style="edgeLabel;html=1;align=center;verticalAlign=middle;resizable=0;points=[];" connectable="0" vertex="1" parent="DqX2a301VDLTfdtzmk4_-79">
          <mxGeometry x="0.1294" y="3" relative="1" as="geometry">
            <mxPoint x="-20" y="3" as="offset" />
          </mxGeometry>
        </mxCell>
        <mxCell id="DqX2a301VDLTfdtzmk4_-81" style="edgeStyle=orthogonalEdgeStyle;rounded=0;orthogonalLoop=1;jettySize=auto;html=1;curved=0;exitX=1;exitY=0;exitDx=0;exitDy=5;exitPerimeter=0;entryX=0;entryY=0;entryDx=0;entryDy=5;entryPerimeter=0;" edge="1" parent="1" source="DqX2a301VDLTfdtzmk4_-74" target="DqX2a301VDLTfdtzmk4_-76">
          <mxGeometry relative="1" as="geometry">
            <Array as="points">
              <mxPoint x="342.5" y="320" />
              <mxPoint x="487.5" y="320" />
              <mxPoint x="487.5" y="315" />
            </Array>
          </mxGeometry>
        </mxCell>
        <mxCell id="DqX2a301VDLTfdtzmk4_-82" value="obtenerParticipante(&lt;br&gt;participante)" style="edgeLabel;html=1;align=center;verticalAlign=middle;resizable=0;points=[];" connectable="0" vertex="1" parent="DqX2a301VDLTfdtzmk4_-81">
          <mxGeometry x="-0.0205" y="2" relative="1" as="geometry">
            <mxPoint x="13" as="offset" />
          </mxGeometry>
        </mxCell>
        <mxCell id="DqX2a301VDLTfdtzmk4_-83" style="edgeStyle=orthogonalEdgeStyle;rounded=0;orthogonalLoop=1;jettySize=auto;html=1;curved=0;entryX=0;entryY=0;entryDx=0;entryDy=5;entryPerimeter=0;" edge="1" parent="1">
          <mxGeometry relative="1" as="geometry">
            <mxPoint x="512.0909090909095" y="365" as="sourcePoint" />
            <mxPoint x="682.5" y="360" as="targetPoint" />
            <Array as="points">
              <mxPoint x="682.5" y="365" />
            </Array>
          </mxGeometry>
        </mxCell>
        <mxCell id="DqX2a301VDLTfdtzmk4_-84" value="obtenerIdPorCorreo" style="edgeLabel;html=1;align=center;verticalAlign=middle;resizable=0;points=[];" connectable="0" vertex="1" parent="DqX2a301VDLTfdtzmk4_-83">
          <mxGeometry x="-0.0098" y="2" relative="1" as="geometry">
            <mxPoint y="1" as="offset" />
          </mxGeometry>
        </mxCell>
        <mxCell id="DqX2a301VDLTfdtzmk4_-85" value="conexionBDD" style="endArrow=open;endSize=12;dashed=1;html=1;rounded=0;" edge="1" parent="1">
          <mxGeometry x="-0.0031" width="160" relative="1" as="geometry">
            <mxPoint x="678" y="340" as="sourcePoint" />
            <mxPoint x="517.5" y="340" as="targetPoint" />
            <mxPoint as="offset" />
          </mxGeometry>
        </mxCell>
        <mxCell id="DqX2a301VDLTfdtzmk4_-86" value="Participante" style="html=1;verticalAlign=bottom;endArrow=open;dashed=1;endSize=8;curved=0;rounded=0;" edge="1" parent="1">
          <mxGeometry x="-0.0678" y="10" relative="1" as="geometry">
            <mxPoint x="677.5" y="480" as="sourcePoint" />
            <mxPoint x="517.5" y="480" as="targetPoint" />
            <mxPoint as="offset" />
          </mxGeometry>
        </mxCell>
        <mxCell id="DqX2a301VDLTfdtzmk4_-87" style="edgeStyle=orthogonalEdgeStyle;rounded=0;orthogonalLoop=1;jettySize=auto;html=1;curved=0;" edge="1" parent="1">
          <mxGeometry relative="1" as="geometry">
            <mxPoint x="517.5" y="420" as="sourcePoint" />
            <mxPoint x="682.5" y="435" as="targetPoint" />
            <Array as="points">
              <mxPoint x="517.5" y="421" />
              <mxPoint x="600.5" y="421" />
              <mxPoint x="600.5" y="455" />
              <mxPoint x="683.5" y="455" />
            </Array>
          </mxGeometry>
        </mxCell>
        <mxCell id="DqX2a301VDLTfdtzmk4_-88" value="obtenerParticipante(id)" style="edgeLabel;html=1;align=center;verticalAlign=middle;resizable=0;points=[];" connectable="0" vertex="1" parent="DqX2a301VDLTfdtzmk4_-87">
          <mxGeometry x="-0.0951" y="-3" relative="1" as="geometry">
            <mxPoint as="offset" />
          </mxGeometry>
        </mxCell>
        <mxCell id="DqX2a301VDLTfdtzmk4_-89" style="edgeStyle=orthogonalEdgeStyle;rounded=0;orthogonalLoop=1;jettySize=auto;html=1;curved=0;exitX=1;exitY=0;exitDx=0;exitDy=5;exitPerimeter=0;entryX=0;entryY=0;entryDx=0;entryDy=5;entryPerimeter=0;" edge="1" parent="1" source="DqX2a301VDLTfdtzmk4_-68" target="DqX2a301VDLTfdtzmk4_-72">
          <mxGeometry relative="1" as="geometry" />
        </mxCell>
        <mxCell id="DqX2a301VDLTfdtzmk4_-90" style="edgeStyle=orthogonalEdgeStyle;rounded=0;orthogonalLoop=1;jettySize=auto;html=1;curved=0;exitX=1;exitY=0;exitDx=0;exitDy=5;exitPerimeter=0;entryX=0;entryY=0;entryDx=0;entryDy=5;entryPerimeter=0;" edge="1" parent="1" source="DqX2a301VDLTfdtzmk4_-76" target="DqX2a301VDLTfdtzmk4_-78">
          <mxGeometry relative="1" as="geometry" />
        </mxCell>
        <mxCell id="DqX2a301VDLTfdtzmk4_-91" value="conectarBDD()" style="edgeLabel;html=1;align=center;verticalAlign=middle;resizable=0;points=[];" connectable="0" vertex="1" parent="DqX2a301VDLTfdtzmk4_-90">
          <mxGeometry x="0.1472" y="2" relative="1" as="geometry">
            <mxPoint x="-20" as="offset" />
          </mxGeometry>
        </mxCell>
        <mxCell id="DqX2a301VDLTfdtzmk4_-92" value="Id" style="endArrow=open;endSize=12;dashed=1;html=1;rounded=0;" edge="1" parent="1">
          <mxGeometry x="-0.0031" width="160" relative="1" as="geometry">
            <mxPoint x="678" y="390" as="sourcePoint" />
            <mxPoint x="517.5" y="390" as="targetPoint" />
            <mxPoint as="offset" />
          </mxGeometry>
        </mxCell>
        <mxCell id="DqX2a301VDLTfdtzmk4_-93" value="Participante" style="html=1;verticalAlign=bottom;endArrow=open;dashed=1;endSize=8;curved=0;rounded=0;" edge="1" parent="1">
          <mxGeometry x="-0.0678" y="10" relative="1" as="geometry">
            <mxPoint x="501.5" y="490" as="sourcePoint" />
            <mxPoint x="341.5" y="490" as="targetPoint" />
            <mxPoint as="offset" />
          </mxGeometry>
        </mxCell>
        <mxCell id="DqX2a301VDLTfdtzmk4_-94" value="Participante" style="html=1;verticalAlign=bottom;endArrow=open;dashed=1;endSize=8;curved=0;rounded=0;" edge="1" parent="1">
          <mxGeometry x="-0.0678" y="10" relative="1" as="geometry">
            <mxPoint x="327.5" y="500" as="sourcePoint" />
            <mxPoint x="167.5" y="500" as="targetPoint" />
            <mxPoint as="offset" />
          </mxGeometry>
        </mxCell>
        <mxCell id="DqX2a301VDLTfdtzmk4_-95" value="&lt;font style=&quot;font-size: 18px;&quot;&gt;Flujo normal&lt;/font&gt;" style="text;html=1;strokeColor=none;fillColor=none;align=center;verticalAlign=middle;whiteSpace=wrap;rounded=0;" vertex="1" parent="1">
          <mxGeometry x="-50" y="150" width="205" height="30" as="geometry" />
        </mxCell>
        <mxCell id="DqX2a301VDLTfdtzmk4_-96" style="edgeStyle=orthogonalEdgeStyle;rounded=0;orthogonalLoop=1;jettySize=auto;html=1;curved=0;entryX=0;entryY=0;entryDx=0;entryDy=5;entryPerimeter=0;" edge="1" parent="1">
          <mxGeometry relative="1" as="geometry">
            <mxPoint x="520.0009090909094" y="815" as="sourcePoint" />
            <mxPoint x="690.41" y="810" as="targetPoint" />
            <Array as="points">
              <mxPoint x="690.41" y="815" />
            </Array>
          </mxGeometry>
        </mxCell>
        <mxCell id="DqX2a301VDLTfdtzmk4_-97" value="obtenerPorUsername" style="edgeLabel;html=1;align=center;verticalAlign=middle;resizable=0;points=[];" connectable="0" vertex="1" parent="DqX2a301VDLTfdtzmk4_-96">
          <mxGeometry x="-0.0098" y="2" relative="1" as="geometry">
            <mxPoint y="1" as="offset" />
          </mxGeometry>
        </mxCell>
        <mxCell id="DqX2a301VDLTfdtzmk4_-98" value="Id" style="endArrow=open;endSize=12;dashed=1;html=1;rounded=0;" edge="1" parent="1">
          <mxGeometry x="-0.0031" width="160" relative="1" as="geometry">
            <mxPoint x="680.5" y="840" as="sourcePoint" />
            <mxPoint x="520" y="840" as="targetPoint" />
            <mxPoint as="offset" />
          </mxGeometry>
        </mxCell>
        <mxCell id="DqX2a301VDLTfdtzmk4_-99" value="" style="shape=umlLifeline;perimeter=lifelinePerimeter;whiteSpace=wrap;html=1;container=1;dropTarget=0;collapsible=0;recursiveResize=0;outlineConnect=0;portConstraint=eastwest;newEdgeStyle={&quot;curved&quot;:0,&quot;rounded&quot;:0};participant=umlActor;" vertex="1" parent="1">
          <mxGeometry x="-2.5" y="1090" width="20" height="370" as="geometry" />
        </mxCell>
        <mxCell id="DqX2a301VDLTfdtzmk4_-100" value="" style="html=1;points=[[0,0,0,0,5],[0,1,0,0,-5],[1,0,0,0,5],[1,1,0,0,-5]];perimeter=orthogonalPerimeter;outlineConnect=0;targetShapes=umlLifeline;portConstraint=eastwest;newEdgeStyle={&quot;curved&quot;:0,&quot;rounded&quot;:0};" vertex="1" parent="DqX2a301VDLTfdtzmk4_-99">
          <mxGeometry x="5" y="70" width="10" height="280" as="geometry" />
        </mxCell>
        <mxCell id="DqX2a301VDLTfdtzmk4_-101" value="VistaBuscarParticipantes" style="shape=umlLifeline;perimeter=lifelinePerimeter;whiteSpace=wrap;html=1;container=1;dropTarget=0;collapsible=0;recursiveResize=0;outlineConnect=0;portConstraint=eastwest;newEdgeStyle={&quot;curved&quot;:0,&quot;rounded&quot;:0};" vertex="1" parent="1">
          <mxGeometry x="77.5" y="1090" width="160" height="370" as="geometry" />
        </mxCell>
        <mxCell id="DqX2a301VDLTfdtzmk4_-102" style="edgeStyle=orthogonalEdgeStyle;rounded=0;orthogonalLoop=1;jettySize=auto;html=1;curved=0;exitX=1;exitY=1;exitDx=0;exitDy=-5;exitPerimeter=0;" edge="1" parent="DqX2a301VDLTfdtzmk4_-101">
          <mxGeometry relative="1" as="geometry">
            <mxPoint x="85" y="280" as="targetPoint" />
            <mxPoint x="85" y="335" as="sourcePoint" />
            <Array as="points">
              <mxPoint x="105" y="335" />
              <mxPoint x="105" y="280" />
            </Array>
          </mxGeometry>
        </mxCell>
        <mxCell id="DqX2a301VDLTfdtzmk4_-103" value="mensajeError()" style="edgeLabel;html=1;align=center;verticalAlign=middle;resizable=0;points=[];" connectable="0" vertex="1" parent="DqX2a301VDLTfdtzmk4_-102">
          <mxGeometry x="-0.0526" y="2" relative="1" as="geometry">
            <mxPoint x="27" as="offset" />
          </mxGeometry>
        </mxCell>
        <mxCell id="DqX2a301VDLTfdtzmk4_-104" style="edgeStyle=orthogonalEdgeStyle;rounded=0;orthogonalLoop=1;jettySize=auto;html=1;curved=0;" edge="1" parent="DqX2a301VDLTfdtzmk4_-101" target="DqX2a301VDLTfdtzmk4_-106">
          <mxGeometry relative="1" as="geometry">
            <mxPoint x="100" y="165" as="targetPoint" />
            <mxPoint x="85" y="60" as="sourcePoint" />
            <Array as="points">
              <mxPoint x="85" y="75" />
              <mxPoint x="105" y="75" />
              <mxPoint x="105" y="100" />
            </Array>
          </mxGeometry>
        </mxCell>
        <mxCell id="DqX2a301VDLTfdtzmk4_-105" value="ObtenerTexto&lt;br&gt;BarraDeBusqueda()" style="edgeLabel;html=1;align=center;verticalAlign=middle;resizable=0;points=[];" connectable="0" vertex="1" parent="DqX2a301VDLTfdtzmk4_-104">
          <mxGeometry x="0.6122" y="-3" relative="1" as="geometry">
            <mxPoint x="49" y="-17" as="offset" />
          </mxGeometry>
        </mxCell>
        <mxCell id="DqX2a301VDLTfdtzmk4_-106" value="" style="html=1;points=[[0,0,0,0,5],[0,1,0,0,-5],[1,0,0,0,5],[1,1,0,0,-5]];perimeter=orthogonalPerimeter;outlineConnect=0;targetShapes=umlLifeline;portConstraint=eastwest;newEdgeStyle={&quot;curved&quot;:0,&quot;rounded&quot;:0};" vertex="1" parent="DqX2a301VDLTfdtzmk4_-101">
          <mxGeometry x="75" y="70" width="10" height="280" as="geometry" />
        </mxCell>
        <mxCell id="DqX2a301VDLTfdtzmk4_-107" value="ControladorPaticipante" style="shape=umlLifeline;whiteSpace=wrap;html=1;container=1;dropTarget=0;collapsible=0;recursiveResize=0;outlineConnect=0;portConstraint=eastwest;newEdgeStyle={&quot;curved&quot;:0,&quot;rounded&quot;:0};points=[[0,0,0,0,5],[0,1,0,0,-5],[1,0,0,0,5],[1,1,0,0,-5]];perimeter=rectanglePerimeter;targetShapes=umlLifeline;participant=label;" vertex="1" parent="1">
          <mxGeometry x="257.5" y="1090" width="160" height="370" as="geometry" />
        </mxCell>
        <mxCell id="DqX2a301VDLTfdtzmk4_-108" value="" style="html=1;points=[[0,0,0,0,5],[0,1,0,0,-5],[1,0,0,0,5],[1,1,0,0,-5]];perimeter=orthogonalPerimeter;outlineConnect=0;targetShapes=umlLifeline;portConstraint=eastwest;newEdgeStyle={&quot;curved&quot;:0,&quot;rounded&quot;:0};" vertex="1" parent="DqX2a301VDLTfdtzmk4_-107">
          <mxGeometry x="75" y="70" width="10" height="180" as="geometry" />
        </mxCell>
        <mxCell id="DqX2a301VDLTfdtzmk4_-109" value="BDDBuscarParticipante" style="shape=umlLifeline;perimeter=lifelinePerimeter;whiteSpace=wrap;html=1;container=1;dropTarget=0;collapsible=0;recursiveResize=0;outlineConnect=0;portConstraint=eastwest;newEdgeStyle={&quot;curved&quot;:0,&quot;rounded&quot;:0};" vertex="1" parent="1">
          <mxGeometry x="432.5" y="1090" width="160" height="370" as="geometry" />
        </mxCell>
        <mxCell id="DqX2a301VDLTfdtzmk4_-110" value="" style="html=1;points=[[0,0,0,0,5],[0,1,0,0,-5],[1,0,0,0,5],[1,1,0,0,-5]];perimeter=orthogonalPerimeter;outlineConnect=0;targetShapes=umlLifeline;portConstraint=eastwest;newEdgeStyle={&quot;curved&quot;:0,&quot;rounded&quot;:0};" vertex="1" parent="DqX2a301VDLTfdtzmk4_-109">
          <mxGeometry x="75" y="100" width="10" height="140" as="geometry" />
        </mxCell>
        <mxCell id="DqX2a301VDLTfdtzmk4_-111" value="ConexionBDD" style="shape=umlLifeline;perimeter=lifelinePerimeter;whiteSpace=wrap;html=1;container=1;dropTarget=0;collapsible=0;recursiveResize=0;outlineConnect=0;portConstraint=eastwest;newEdgeStyle={&quot;curved&quot;:0,&quot;rounded&quot;:0};" vertex="1" parent="1">
          <mxGeometry x="607.5" y="1090" width="160" height="370" as="geometry" />
        </mxCell>
        <mxCell id="DqX2a301VDLTfdtzmk4_-112" value="" style="html=1;points=[[0,0,0,0,5],[0,1,0,0,-5],[1,0,0,0,5],[1,1,0,0,-5]];perimeter=orthogonalPerimeter;outlineConnect=0;targetShapes=umlLifeline;portConstraint=eastwest;newEdgeStyle={&quot;curved&quot;:0,&quot;rounded&quot;:0};" vertex="1" parent="DqX2a301VDLTfdtzmk4_-111">
          <mxGeometry x="75" y="100" width="10" height="130" as="geometry" />
        </mxCell>
        <mxCell id="DqX2a301VDLTfdtzmk4_-113" style="edgeStyle=orthogonalEdgeStyle;rounded=0;orthogonalLoop=1;jettySize=auto;html=1;curved=0;exitX=1;exitY=0;exitDx=0;exitDy=5;exitPerimeter=0;" edge="1" parent="1">
          <mxGeometry relative="1" as="geometry">
            <mxPoint x="167.5" y="1200" as="sourcePoint" />
            <mxPoint x="327.5" y="1200" as="targetPoint" />
          </mxGeometry>
        </mxCell>
        <mxCell id="DqX2a301VDLTfdtzmk4_-114" value="mostrarParticipantes()" style="edgeLabel;html=1;align=center;verticalAlign=middle;resizable=0;points=[];" connectable="0" vertex="1" parent="DqX2a301VDLTfdtzmk4_-113">
          <mxGeometry x="0.1294" y="3" relative="1" as="geometry">
            <mxPoint x="-20" y="3" as="offset" />
          </mxGeometry>
        </mxCell>
        <mxCell id="DqX2a301VDLTfdtzmk4_-115" style="edgeStyle=orthogonalEdgeStyle;rounded=0;orthogonalLoop=1;jettySize=auto;html=1;curved=0;exitX=1;exitY=0;exitDx=0;exitDy=5;exitPerimeter=0;entryX=0;entryY=0;entryDx=0;entryDy=5;entryPerimeter=0;" edge="1" parent="1" source="DqX2a301VDLTfdtzmk4_-108" target="DqX2a301VDLTfdtzmk4_-110">
          <mxGeometry relative="1" as="geometry">
            <Array as="points">
              <mxPoint x="342.5" y="1200" />
              <mxPoint x="487.5" y="1200" />
              <mxPoint x="487.5" y="1195" />
            </Array>
          </mxGeometry>
        </mxCell>
        <mxCell id="DqX2a301VDLTfdtzmk4_-116" value="obtenerParticipante(&lt;br&gt;participante)" style="edgeLabel;html=1;align=center;verticalAlign=middle;resizable=0;points=[];" connectable="0" vertex="1" parent="DqX2a301VDLTfdtzmk4_-115">
          <mxGeometry x="-0.0205" y="2" relative="1" as="geometry">
            <mxPoint x="13" as="offset" />
          </mxGeometry>
        </mxCell>
        <mxCell id="DqX2a301VDLTfdtzmk4_-117" style="edgeStyle=orthogonalEdgeStyle;rounded=0;orthogonalLoop=1;jettySize=auto;html=1;curved=0;entryX=0;entryY=0;entryDx=0;entryDy=5;entryPerimeter=0;" edge="1" parent="1">
          <mxGeometry relative="1" as="geometry">
            <mxPoint x="512.0909090909095" y="1245" as="sourcePoint" />
            <mxPoint x="682.5" y="1240" as="targetPoint" />
            <Array as="points">
              <mxPoint x="682.5" y="1245" />
            </Array>
          </mxGeometry>
        </mxCell>
        <mxCell id="DqX2a301VDLTfdtzmk4_-118" value="obtenerIdPorCorreo" style="edgeLabel;html=1;align=center;verticalAlign=middle;resizable=0;points=[];" connectable="0" vertex="1" parent="DqX2a301VDLTfdtzmk4_-117">
          <mxGeometry x="-0.0098" y="2" relative="1" as="geometry">
            <mxPoint y="1" as="offset" />
          </mxGeometry>
        </mxCell>
        <mxCell id="DqX2a301VDLTfdtzmk4_-119" value="conexionBDD" style="endArrow=open;endSize=12;dashed=1;html=1;rounded=0;" edge="1" parent="1">
          <mxGeometry x="-0.0031" width="160" relative="1" as="geometry">
            <mxPoint x="678" y="1220" as="sourcePoint" />
            <mxPoint x="517.5" y="1220" as="targetPoint" />
            <mxPoint as="offset" />
          </mxGeometry>
        </mxCell>
        <mxCell id="DqX2a301VDLTfdtzmk4_-123" style="edgeStyle=orthogonalEdgeStyle;rounded=0;orthogonalLoop=1;jettySize=auto;html=1;curved=0;exitX=1;exitY=0;exitDx=0;exitDy=5;exitPerimeter=0;entryX=0;entryY=0;entryDx=0;entryDy=5;entryPerimeter=0;" edge="1" parent="1" source="DqX2a301VDLTfdtzmk4_-100" target="DqX2a301VDLTfdtzmk4_-106">
          <mxGeometry relative="1" as="geometry" />
        </mxCell>
        <mxCell id="DqX2a301VDLTfdtzmk4_-124" style="edgeStyle=orthogonalEdgeStyle;rounded=0;orthogonalLoop=1;jettySize=auto;html=1;curved=0;exitX=1;exitY=0;exitDx=0;exitDy=5;exitPerimeter=0;entryX=0;entryY=0;entryDx=0;entryDy=5;entryPerimeter=0;" edge="1" parent="1" source="DqX2a301VDLTfdtzmk4_-110" target="DqX2a301VDLTfdtzmk4_-112">
          <mxGeometry relative="1" as="geometry" />
        </mxCell>
        <mxCell id="DqX2a301VDLTfdtzmk4_-125" value="conectarBDD()" style="edgeLabel;html=1;align=center;verticalAlign=middle;resizable=0;points=[];" connectable="0" vertex="1" parent="DqX2a301VDLTfdtzmk4_-124">
          <mxGeometry x="0.1472" y="2" relative="1" as="geometry">
            <mxPoint x="-20" as="offset" />
          </mxGeometry>
        </mxCell>
        <mxCell id="DqX2a301VDLTfdtzmk4_-126" value="Id" style="endArrow=open;endSize=12;dashed=1;html=1;rounded=0;" edge="1" parent="1">
          <mxGeometry x="-0.0031" width="160" relative="1" as="geometry">
            <mxPoint x="678" y="1270" as="sourcePoint" />
            <mxPoint x="517.5" y="1270" as="targetPoint" />
            <mxPoint as="offset" />
          </mxGeometry>
        </mxCell>
        <mxCell id="DqX2a301VDLTfdtzmk4_-129" style="edgeStyle=orthogonalEdgeStyle;rounded=0;orthogonalLoop=1;jettySize=auto;html=1;curved=0;entryX=0;entryY=0;entryDx=0;entryDy=5;entryPerimeter=0;" edge="1" parent="1">
          <mxGeometry relative="1" as="geometry">
            <mxPoint x="517.5009090909094" y="1295" as="sourcePoint" />
            <mxPoint x="687.91" y="1290" as="targetPoint" />
            <Array as="points">
              <mxPoint x="687.91" y="1295" />
            </Array>
          </mxGeometry>
        </mxCell>
        <mxCell id="DqX2a301VDLTfdtzmk4_-130" value="obtenerPorUsername" style="edgeLabel;html=1;align=center;verticalAlign=middle;resizable=0;points=[];" connectable="0" vertex="1" parent="DqX2a301VDLTfdtzmk4_-129">
          <mxGeometry x="-0.0098" y="2" relative="1" as="geometry">
            <mxPoint y="1" as="offset" />
          </mxGeometry>
        </mxCell>
        <mxCell id="DqX2a301VDLTfdtzmk4_-131" value="Id" style="endArrow=open;endSize=12;dashed=1;html=1;rounded=0;" edge="1" parent="1">
          <mxGeometry x="-0.0031" width="160" relative="1" as="geometry">
            <mxPoint x="678" y="1320" as="sourcePoint" />
            <mxPoint x="517.5" y="1320" as="targetPoint" />
            <mxPoint as="offset" />
          </mxGeometry>
        </mxCell>
        <mxCell id="DqX2a301VDLTfdtzmk4_-132" value="No&amp;nbsp; existe Id" style="edgeLabel;html=1;align=center;verticalAlign=middle;resizable=0;points=[];" connectable="0" vertex="1" parent="DqX2a301VDLTfdtzmk4_-131">
          <mxGeometry x="-0.0757" y="2" relative="1" as="geometry">
            <mxPoint as="offset" />
          </mxGeometry>
        </mxCell>
        <mxCell id="DqX2a301VDLTfdtzmk4_-133" value="Id" style="endArrow=open;endSize=12;dashed=1;html=1;rounded=0;" edge="1" parent="1">
          <mxGeometry x="-0.0031" width="160" relative="1" as="geometry">
            <mxPoint x="500.5" y="1330" as="sourcePoint" />
            <mxPoint x="340" y="1330" as="targetPoint" />
            <mxPoint as="offset" />
          </mxGeometry>
        </mxCell>
        <mxCell id="DqX2a301VDLTfdtzmk4_-134" value="No&amp;nbsp; existe Id" style="edgeLabel;html=1;align=center;verticalAlign=middle;resizable=0;points=[];" connectable="0" vertex="1" parent="DqX2a301VDLTfdtzmk4_-133">
          <mxGeometry x="-0.0757" y="2" relative="1" as="geometry">
            <mxPoint as="offset" />
          </mxGeometry>
        </mxCell>
        <mxCell id="DqX2a301VDLTfdtzmk4_-135" value="Id" style="endArrow=open;endSize=12;dashed=1;html=1;rounded=0;" edge="1" parent="1">
          <mxGeometry x="-0.0031" width="160" relative="1" as="geometry">
            <mxPoint x="325.5" y="1340" as="sourcePoint" />
            <mxPoint x="165" y="1340" as="targetPoint" />
            <mxPoint as="offset" />
          </mxGeometry>
        </mxCell>
        <mxCell id="DqX2a301VDLTfdtzmk4_-136" value="No&amp;nbsp; existe Id" style="edgeLabel;html=1;align=center;verticalAlign=middle;resizable=0;points=[];" connectable="0" vertex="1" parent="DqX2a301VDLTfdtzmk4_-135">
          <mxGeometry x="-0.0757" y="2" relative="1" as="geometry">
            <mxPoint as="offset" />
          </mxGeometry>
        </mxCell>
      </root>
    </mxGraphModel>
  </diagram>
</mxfile>
